<svg width="15" height="15" viewBox="0 0 15 15" fill="none" xmlns="http://www.w3.org/2000/svg">
<path d="M10.0664 7.625C10.0664 7.69922 10.0605 7.76367 10.0488 7.81836C10.0371 7.86914 10.0215 7.91211 10.002 7.94727C9.98242 7.98242 9.95898 8.00781 9.93164 8.02344C9.9043 8.03906 9.875 8.04688 9.84375 8.04688H7.92188V10.1797C7.92188 10.2109 7.91406 10.2383 7.89844 10.2617C7.88281 10.2812 7.85742 10.2988 7.82227 10.3145C7.79102 10.3301 7.74805 10.3438 7.69336 10.3555C7.63867 10.3633 7.57031 10.3672 7.48828 10.3672C7.41016 10.3672 7.3418 10.3633 7.2832 10.3555C7.22852 10.3438 7.18359 10.3301 7.14844 10.3145C7.11719 10.2988 7.09375 10.2812 7.07812 10.2617C7.0625 10.2383 7.05469 10.2109 7.05469 10.1797V8.04688H5.13281C5.09766 8.04688 5.06641 8.03906 5.03906 8.02344C5.01562 8.00781 4.99414 7.98242 4.97461 7.94727C4.95508 7.91211 4.93945 7.86914 4.92773 7.81836C4.91602 7.76367 4.91016 7.69922 4.91016 7.625C4.91016 7.55469 4.91602 7.49414 4.92773 7.44336C4.93945 7.38867 4.95508 7.34375 4.97461 7.30859C4.99414 7.27344 5.01562 7.24805 5.03906 7.23242C5.06641 7.2168 5.0957 7.20898 5.12695 7.20898H7.05469V5.07617C7.05469 5.04492 7.0625 5.01758 7.07812 4.99414C7.09375 4.9668 7.11719 4.94531 7.14844 4.92969C7.18359 4.91016 7.22852 4.89648 7.2832 4.88867C7.3418 4.87695 7.41016 4.87109 7.48828 4.87109C7.57031 4.87109 7.63867 4.87695 7.69336 4.88867C7.74805 4.89648 7.79102 4.91016 7.82227 4.92969C7.85742 4.94531 7.88281 4.9668 7.89844 4.99414C7.91406 5.01758 7.92188 5.04492 7.92188 5.07617V7.20898H9.84961C9.88086 7.20898 9.9082 7.2168 9.93164 7.23242C9.95898 7.24805 9.98242 7.27344 10.002 7.30859C10.0254 7.34375 10.041 7.38867 10.0488 7.44336C10.0605 7.49414 10.0664 7.55469 10.0664 7.625Z" fill="white"/>
<rect x="0.25" y="0.25" width="14.5" height="14.5" rx="7.25" stroke="#C3EBE2" stroke-width="0.5"/>
</svg>
